<?xml version="1.0" encoding="UTF-8"?>
<!DOCTYPE svg PUBLIC "-//W3C//DTD SVG 1.1//EN" "http://www.w3.org/Graphics/SVG/1.1/DTD/svg11.dtd">
<!-- Creator: CorelDRAW X7 -->
<svg xmlns="http://www.w3.org/2000/svg" xml:space="preserve" width="1.02362in" height="1.02362in" version="1.1" style="shape-rendering:geometricPrecision; text-rendering:geometricPrecision; image-rendering:optimizeQuality; fill-rule:evenodd; clip-rule:evenodd"
viewBox="0 0 1024 1024"
 xmlns:xlink="http://www.w3.org/1999/xlink">
 <defs>
  <style type="text/css">
   <![CDATA[
    .fil3 {fill:#252223}
    .fil2 {fill:#CC9933}
    .fil1 {fill:#CC9933}
    .fil0 {fill:white}
   ]]>
  </style>
 </defs>
 <g id="Layer_x0020_1">
  <metadata id="CorelCorpID_0Corel-Layer"/>
  <g id="_1581725219136">
   <path class="fil0" d="M687 210c94,6 174,5 177,113 3,121 -71,126 -179,119l-4 84c49,0 121,-6 160,13 39,18 64,60 65,117 1,147 -101,131 -223,133l1 90c160,2 260,-1 319,-121 42,-86 23,-211 -83,-264l-32 -16c-1,-1 -3,-2 -4,-3 97,-63 123,-156 71,-255 -21,-41 -55,-64 -103,-84 -52,-20 -113,-22 -171,-20 0,31 -5,66 6,94z"/>
   <path class="fil0" d="M518 876l119 3 0 -436c-24,-1 -109,-10 -118,8l-1 425z"/>
   <path class="fil1" d="M748 567c-125,28 -75,217 47,182 103,-30 73,-209 -47,-182z"/>
   <path class="fil2" d="M559 264c-93,32 -40,155 40,126 75,-27 42,-154 -40,-126z"/>
   <g>
    <path class="fil1" d="M962 918c-145,6 -232,29 -338,-61 -80,-68 -129,-136 -136,-293 -40,29 -69,148 -55,220 15,82 62,144 106,188 109,109 339,24 423,-54z"/>
    <path class="fil0" d="M519 988c-54,-75 -144,-161 -108,-312 34,-142 144,-205 100,-305 -52,106 -52,81 -118,151 -38,41 -85,89 -106,165 -33,124 43,211 132,265 26,16 66,32 100,36z"/>
    <path class="fil1" d="M2 554c-6,39 0,75 39,80 38,5 54,-29 96,5 24,19 60,69 84,99 22,28 11,23 38,35 -9,-96 42,-172 85,-225 16,-20 11,-20 35,-40 16,-14 22,-27 37,-40 26,-22 57,-41 68,-86 -40,55 -115,97 -204,122 -97,27 -252,37 -278,50z"/>
    <path class="fil1" d="M472 85c-17,32 -10,62 -51,59 -26,-2 -25,-8 -30,-28 -6,-22 -5,-18 -13,-36 -25,3 -41,9 -61,15 15,70 23,101 49,161 58,-7 58,-6 116,2 10,-27 19,-38 27,-77 8,-36 15,-51 24,-79 -18,-10 -33,-18 -61,-17z"/>
    <path class="fil0" d="M328 471c37,-3 120,-56 152,-107 22,-33 9,-39 -5,-64 -30,-3 -50,-7 -81,-3 -35,5 -27,12 -42,41 -22,43 -36,75 -24,133z"/>
    <path class="fil3" d="M378 80c8,18 7,14 13,36 5,20 4,26 30,28 41,3 34,-27 51,-59 -31,-42 2,-79 -40,-84 -49,-7 -40,27 -40,28 -3,25 -3,31 -14,51z"/>
    <path class="fil0" d="M371 291l103 -4c-2,-28 -14,-26 -47,-26 -62,-1 -54,10 -56,30z"/>
   </g>
   <polygon class="fil1" points="513,211 634,211 634,116 513,116 "/>
  </g>
 </g>
</svg>
